<?xml version="1.0" encoding="UTF-8" standalone="no"?>
<!DOCTYPE svg PUBLIC "-//W3C//DTD SVG 1.1//EN"
 "http://www.w3.org/Graphics/SVG/1.1/DTD/svg11.dtd">
<!-- Generated by graphviz version 14.1.5 (0)
 -->
<!-- Title: fsm_state_graph Pages: 1 -->
<svg width="387pt" height="523pt"
 viewBox="0.00 0.00 387.00 523.00" xmlns="http://www.w3.org/2000/svg" xmlns:xlink="http://www.w3.org/1999/xlink">
<g id="graph0" class="graph" transform="scale(1 1) rotate(0) translate(4 518.75)">
<title>fsm_state_graph</title>
<polygon fill="white" stroke="none" points="-4,4 -4,-518.75 382.93,-518.75 382.93,4 -4,4"/>
<g id="clust1" class="cluster">
<title>cluster_transitions</title>
<polygon fill="none" stroke="black" points="8,-8 8,-506.75 318,-506.75 318,-8 8,-8"/>
<text xml:space="preserve" text-anchor="middle" x="163" y="-489.45" font-family="Times,serif" font-size="14.00">State Transitions</text>
</g>
<g id="clust2" class="cluster">
<title>cluster_fsm_0</title>
<polygon fill="none" stroke="black" points="16,-128.5 16,-473.5 310,-473.5 310,-128.5 16,-128.5"/>
<text xml:space="preserve" text-anchor="middle" x="163" y="-456.2" font-family="Times,serif" font-size="14.00">2pc_generic: { .charlie, .alice, .bob }</text>
</g>
<g id="clust3" class="cluster">
<title>cluster_fsm_1</title>
<polygon fill="none" stroke="black" points="66,-16 66,-93.25 163,-93.25 163,-16 66,-16"/>
<text xml:space="preserve" text-anchor="middle" x="114.5" y="-75.95" font-family="Times,serif" font-size="14.00">troupe_exit</text>
</g>
<!-- 0 -->
<g id="node1" class="node">
<title>0</title>
<polygon fill="none" stroke="red" points="297.38,-440.25 28.62,-440.25 28.62,-404.25 297.38,-404.25 297.38,-440.25"/>
<text xml:space="preserve" text-anchor="middle" x="163" y="-417.57" font-family="Times,serif" font-size="14.00">[0] Begin .charlie &#45;&gt; { .alice, .bob }</text>
</g>
<!-- 1 -->
<g id="node2" class="node">
<title>1</title>
<polygon fill="none" stroke="green" points="281.75,-351 24.25,-351 24.25,-315 281.75,-315 281.75,-351"/>
<text xml:space="preserve" text-anchor="middle" x="153" y="-328.32" font-family="Times,serif" font-size="14.00">[1] AliceResp .alice &#45;&gt; { .charlie }</text>
</g>
<!-- 0&#45;&gt;1 -->
<g id="edge1" class="edge">
<title>0&#45;&gt;1</title>
<path fill="none" stroke="red" d="M161.02,-404.01C159.67,-392.18 157.84,-376.2 156.27,-362.5"/>
<polygon fill="red" stroke="red" points="159.76,-362.24 155.14,-352.71 152.81,-363.04 159.76,-362.24"/>
<text xml:space="preserve" text-anchor="middle" x="178.77" y="-372.95" font-family="Times,serif" font-size="14.00" fill="red">begin</text>
</g>
<!-- 2 -->
<g id="node3" class="node">
<title>2</title>
<polygon fill="none" stroke="blue" points="268,-261.75 24,-261.75 24,-225.75 268,-225.75 268,-261.75"/>
<text xml:space="preserve" text-anchor="middle" x="146" y="-239.07" font-family="Times,serif" font-size="14.00">[2] BobResp .bob &#45;&gt; { .charlie }</text>
</g>
<!-- 1&#45;&gt;2 -->
<g id="edge2" class="edge">
<title>1&#45;&gt;2</title>
<path fill="none" stroke="green" d="M151.62,-314.76C150.67,-302.93 149.39,-286.95 148.29,-273.25"/>
<polygon fill="green" stroke="green" points="151.79,-273.15 147.5,-263.46 144.81,-273.71 151.79,-273.15"/>
<text xml:space="preserve" text-anchor="middle" x="165.88" y="-283.7" font-family="Times,serif" font-size="14.00" fill="green">resp</text>
</g>
<!-- 3 -->
<g id="node4" class="node">
<title>3</title>
<polygon fill="none" stroke="brown" points="298.5,-172.5 27.5,-172.5 27.5,-136.5 298.5,-136.5 298.5,-172.5"/>
<text xml:space="preserve" text-anchor="middle" x="163" y="-149.82" font-family="Times,serif" font-size="14.00">[3] Check .charlie &#45;&gt; { .alice, .bob }</text>
</g>
<!-- 2&#45;&gt;3 -->
<g id="edge3" class="edge">
<title>2&#45;&gt;3</title>
<path fill="none" stroke="blue" d="M149.36,-225.51C151.66,-213.68 154.78,-197.7 157.45,-184"/>
<polygon fill="blue" stroke="blue" points="160.88,-184.67 159.36,-174.19 154.01,-183.33 160.88,-184.67"/>
<text xml:space="preserve" text-anchor="middle" x="171.77" y="-194.45" font-family="Times,serif" font-size="14.00" fill="blue">resp</text>
</g>
<!-- 3&#45;&gt;0 -->
<g id="edge6" class="edge">
<title>3&#45;&gt;0</title>
<path fill="none" stroke="brown" d="M209.65,-172.99C233.57,-184.38 260.97,-201.65 277,-225.75 292.87,-249.61 305.75,-326.08 291,-351 278.07,-372.85 255.66,-388.36 233.17,-399.14"/>
<polygon fill="brown" stroke="brown" points="231.94,-395.85 224.25,-403.14 234.81,-402.24 231.94,-395.85"/>
<text xml:space="preserve" text-anchor="middle" x="337.68" y="-283.7" font-family="Times,serif" font-size="14.00" fill="brown">failed_retry</text>
</g>
<!-- 4 -->
<g id="node5" class="node">
<title>4</title>
<polygon fill="none" stroke="navy" points="148.62,-60 79.38,-60 79.38,-24 148.62,-24 148.62,-60"/>
<text xml:space="preserve" text-anchor="middle" x="114" y="-37.33" font-family="Times,serif" font-size="14.00">[4] Exit</text>
</g>
<!-- 3&#45;&gt;4 -->
<g id="edge4" class="edge">
<title>3&#45;&gt;4</title>
<path fill="none" stroke="brown" d="M106.94,-136.09C99.63,-131.51 93.1,-125.74 88.5,-118.5 79.01,-103.55 85.38,-84.69 94.12,-69.55"/>
<polygon fill="brown" stroke="brown" points="96.83,-71.81 99.26,-61.5 90.93,-68.05 96.83,-71.81"/>
<text xml:space="preserve" text-anchor="middle" x="128.25" y="-105.2" font-family="Times,serif" font-size="14.00" fill="brown">succcessed</text>
</g>
<!-- 3&#45;&gt;4 -->
<g id="edge5" class="edge">
<title>3&#45;&gt;4</title>
<path fill="none" stroke="brown" d="M168.58,-136C170.97,-125.58 172.33,-112.28 168,-101.25 163.09,-88.74 154.1,-77.31 144.84,-67.96"/>
<polygon fill="brown" stroke="brown" points="147.5,-65.66 137.82,-61.33 142.69,-70.75 147.5,-65.66"/>
<text xml:space="preserve" text-anchor="middle" x="190.69" y="-105.2" font-family="Times,serif" font-size="14.00" fill="brown">failed</text>
</g>
</g>
</svg>
