<?xml version="1.0" encoding="UTF-8" standalone="no"?>
<!DOCTYPE svg PUBLIC "-//W3C//DTD SVG 1.1//EN"
 "http://www.w3.org/Graphics/SVG/1.1/DTD/svg11.dtd">
<!-- Generated by graphviz version 14.1.5 (0)
 -->
<!-- Title: fsm_state_graph Pages: 1 -->
<svg width="1898pt" height="344pt"
 viewBox="0.00 0.00 1898.00 344.00" xmlns="http://www.w3.org/2000/svg" xmlns:xlink="http://www.w3.org/1999/xlink">
<g id="graph0" class="graph" transform="scale(1 1) rotate(0) translate(4 340.25)">
<title>fsm_state_graph</title>
<polygon fill="white" stroke="none" points="-4,4 -4,-340.25 1894,-340.25 1894,4 -4,4"/>
<g id="clust1" class="cluster">
<title>cluster_transitions</title>
<polygon fill="none" stroke="black" points="8,-8 8,-328.25 1882,-328.25 1882,-8 8,-8"/>
<text xml:space="preserve" text-anchor="middle" x="945" y="-310.95" font-family="Times,serif" font-size="14.00">State Transitions</text>
</g>
<g id="clust2" class="cluster">
<title>cluster_fsm_0</title>
<polygon fill="none" stroke="black" points="16,-16 16,-295 1769,-295 1769,-16 16,-16"/>
<text xml:space="preserve" text-anchor="middle" x="892.5" y="-277.7" font-family="Times,serif" font-size="14.00">remote_fm: { .client, .server }</text>
</g>
<g id="clust3" class="cluster">
<title>cluster_fsm_1</title>
<polygon fill="none" stroke="black" points="1777,-105.25 1777,-182.5 1874,-182.5 1874,-105.25 1777,-105.25"/>
<text xml:space="preserve" text-anchor="middle" x="1825.5" y="-165.2" font-family="Times,serif" font-size="14.00">troupe_exit</text>
</g>
<!-- 0 -->
<g id="node1" class="node">
<title>0</title>
<polygon fill="none" stroke="red" points="1270.75,-261.75 1007.25,-261.75 1007.25,-225.75 1270.75,-225.75 1270.75,-261.75"/>
<text xml:space="preserve" text-anchor="middle" x="1139" y="-239.07" font-family="Times,serif" font-size="14.00">[0] Command .client &#45;&gt; { .server }</text>
</g>
<!-- 1 -->
<g id="node2" class="node">
<title>1</title>
<polygon fill="none" stroke="green" points="601.5,-149.25 360.5,-149.25 360.5,-113.25 601.5,-113.25 601.5,-149.25"/>
<text xml:space="preserve" text-anchor="middle" x="481" y="-126.58" font-family="Times,serif" font-size="14.00">[1] ListDir .server &#45;&gt; { .client }</text>
</g>
<!-- 0&#45;&gt;1 -->
<g id="edge1" class="edge">
<title>0&#45;&gt;1</title>
<path fill="none" stroke="red" d="M1006.83,-241.41C840.22,-238.76 570.58,-230.91 530.5,-207.75 512.24,-197.2 499.5,-176.89 491.53,-159.99"/>
<polygon fill="red" stroke="red" points="494.77,-158.67 487.57,-150.9 488.35,-161.46 494.77,-158.67"/>
<text xml:space="preserve" text-anchor="middle" x="541.75" y="-194.45" font-family="Times,serif" font-size="14.00" fill="red">list</text>
</g>
<!-- 2 -->
<g id="node3" class="node">
<title>2</title>
<polygon fill="none" stroke="blue" points="874.25,-149.25 619.75,-149.25 619.75,-113.25 874.25,-113.25 874.25,-149.25"/>
<text xml:space="preserve" text-anchor="middle" x="747" y="-126.58" font-family="Times,serif" font-size="14.00">[2] ReadFile .server &#45;&gt; { .client }</text>
</g>
<!-- 0&#45;&gt;2 -->
<g id="edge2" class="edge">
<title>0&#45;&gt;2</title>
<path fill="none" stroke="red" d="M1006.94,-228.54C975.69,-223.48 942.74,-216.71 912.75,-207.75 868.74,-194.59 821.3,-172.06 788.5,-155.02"/>
<polygon fill="red" stroke="red" points="790.2,-151.96 779.72,-150.41 786.95,-158.16 790.2,-151.96"/>
<text xml:space="preserve" text-anchor="middle" x="928.88" y="-194.45" font-family="Times,serif" font-size="14.00" fill="red">read</text>
</g>
<!-- 3 -->
<g id="node4" class="node">
<title>3</title>
<polygon fill="none" stroke="brown" points="282.12,-149.25 23.88,-149.25 23.88,-113.25 282.12,-113.25 282.12,-149.25"/>
<text xml:space="preserve" text-anchor="middle" x="153" y="-126.58" font-family="Times,serif" font-size="14.00">[3] WriteFile .client &#45;&gt; { .server }</text>
</g>
<!-- 0&#45;&gt;3 -->
<g id="edge3" class="edge">
<title>0&#45;&gt;3</title>
<path fill="none" stroke="red" d="M1006.84,-241.96C871.58,-239.72 655.57,-232.16 470.5,-207.75 417.11,-200.71 404.45,-194.71 352,-182.5 311.9,-173.17 267.46,-162.02 230.76,-152.6"/>
<polygon fill="red" stroke="red" points="231.66,-149.22 221.1,-150.12 229.91,-156 231.66,-149.22"/>
<text xml:space="preserve" text-anchor="middle" x="489.25" y="-194.45" font-family="Times,serif" font-size="14.00" fill="red">write</text>
</g>
<!-- 5 -->
<g id="node6" class="node">
<title>5</title>
<polygon fill="none" stroke="teal" points="1191,-149.25 953,-149.25 953,-113.25 1191,-113.25 1191,-149.25"/>
<text xml:space="preserve" text-anchor="middle" x="1072" y="-126.58" font-family="Times,serif" font-size="14.00">[5] Delete .server &#45;&gt; { .client }</text>
</g>
<!-- 0&#45;&gt;5 -->
<g id="edge4" class="edge">
<title>0&#45;&gt;5</title>
<path fill="none" stroke="red" d="M1090.74,-225.43C1083.59,-220.78 1077.15,-214.97 1072.75,-207.75 1064.3,-193.88 1063.85,-175.76 1065.64,-160.74"/>
<polygon fill="red" stroke="red" points="1069.07,-161.43 1067.2,-151 1062.16,-160.32 1069.07,-161.43"/>
<text xml:space="preserve" text-anchor="middle" x="1094.88" y="-194.45" font-family="Times,serif" font-size="14.00" fill="red">delete</text>
</g>
<!-- 6 -->
<g id="node7" class="node">
<title>6</title>
<polygon fill="none" stroke="cyan" points="1430.75,-149.25 1209.25,-149.25 1209.25,-113.25 1430.75,-113.25 1430.75,-149.25"/>
<text xml:space="preserve" text-anchor="middle" x="1320" y="-126.58" font-family="Times,serif" font-size="14.00">[6] Stat .server &#45;&gt; { .client }</text>
</g>
<!-- 0&#45;&gt;6 -->
<g id="edge5" class="edge">
<title>0&#45;&gt;6</title>
<path fill="none" stroke="red" d="M1167.28,-225.48C1198.14,-206.65 1247.7,-176.39 1281.96,-155.48"/>
<polygon fill="red" stroke="red" points="1283.62,-158.56 1290.33,-150.37 1279.97,-152.59 1283.62,-158.56"/>
<text xml:space="preserve" text-anchor="middle" x="1237.95" y="-194.45" font-family="Times,serif" font-size="14.00" fill="red">stat</text>
</g>
<!-- 7 -->
<g id="node8" class="node">
<title>7</title>
<polygon fill="none" stroke="magenta" points="1761.12,-149.25 1526.88,-149.25 1526.88,-113.25 1761.12,-113.25 1761.12,-149.25"/>
<text xml:space="preserve" text-anchor="middle" x="1644" y="-126.58" font-family="Times,serif" font-size="14.00">[7] Mkdir .server &#45;&gt; { .client }</text>
</g>
<!-- 0&#45;&gt;7 -->
<g id="edge6" class="edge">
<title>0&#45;&gt;7</title>
<path fill="none" stroke="red" d="M1271.17,-238.24C1332.98,-233.76 1407.1,-224.96 1472,-207.75 1518.42,-195.44 1568.35,-172.31 1602.39,-154.88"/>
<polygon fill="red" stroke="red" points="1603.82,-158.08 1611.08,-150.37 1600.6,-151.87 1603.82,-158.08"/>
<text xml:space="preserve" text-anchor="middle" x="1541.88" y="-194.45" font-family="Times,serif" font-size="14.00" fill="red">mkdir</text>
</g>
<!-- 8 -->
<g id="node9" class="node">
<title>8</title>
<polygon fill="none" stroke="darkred" points="1854.62,-149.25 1785.38,-149.25 1785.38,-113.25 1854.62,-113.25 1854.62,-149.25"/>
<text xml:space="preserve" text-anchor="middle" x="1820" y="-126.58" font-family="Times,serif" font-size="14.00">[8] Exit</text>
</g>
<!-- 0&#45;&gt;8 -->
<g id="edge7" class="edge">
<title>0&#45;&gt;8</title>
<path fill="none" stroke="red" d="M1271,-237.63C1371.82,-232.72 1514.07,-223.63 1638,-207.75 1698.55,-199.99 1719.49,-211.86 1773,-182.5 1783.84,-176.55 1793.6,-167.2 1801.37,-158.17"/>
<polygon fill="red" stroke="red" points="1803.96,-160.54 1807.51,-150.56 1798.51,-156.15 1803.96,-160.54"/>
<text xml:space="preserve" text-anchor="middle" x="1768.52" y="-194.45" font-family="Times,serif" font-size="14.00" fill="red">exit</text>
</g>
<!-- 1&#45;&gt;0 -->
<g id="edge8" class="edge">
<title>1&#45;&gt;0</title>
<path fill="none" stroke="green" d="M518.57,-149.71C544.1,-160.83 578.93,-174.59 611,-182.5 738.94,-214.04 888.46,-229.14 995.67,-236.33"/>
<polygon fill="green" stroke="green" points="995.17,-239.8 1005.38,-236.96 995.63,-232.82 995.17,-239.8"/>
<text xml:space="preserve" text-anchor="middle" x="740.64" y="-194.45" font-family="Times,serif" font-size="14.00" fill="green">resp</text>
</g>
<!-- 2&#45;&gt;0 -->
<g id="edge10" class="edge">
<title>2&#45;&gt;0</title>
<path fill="none" stroke="blue" d="M808.97,-149.72C878.82,-169.41 992.25,-201.38 1066.25,-222.24"/>
<polygon fill="blue" stroke="blue" points="1065.29,-225.61 1075.86,-224.95 1067.19,-218.87 1065.29,-225.61"/>
<text xml:space="preserve" text-anchor="middle" x="1029.46" y="-194.45" font-family="Times,serif" font-size="14.00" fill="blue">done</text>
</g>
<!-- 2&#45;&gt;2 -->
<g id="edge9" class="edge">
<title>2&#45;&gt;2</title>
<path fill="none" stroke="blue" d="M874.48,-137.78C885.42,-136.39 892.25,-134.21 892.25,-131.25 892.25,-129.49 889.84,-128.01 885.59,-126.8"/>
<polygon fill="blue" stroke="blue" points="886.44,-123.4 875.96,-125 885.15,-130.28 886.44,-123.4"/>
<text xml:space="preserve" text-anchor="middle" x="913.62" y="-126.58" font-family="Times,serif" font-size="14.00" fill="blue">chunk</text>
</g>
<!-- 3&#45;&gt;3 -->
<g id="edge11" class="edge">
<title>3&#45;&gt;3</title>
<path fill="none" stroke="brown" d="M282.61,-137.72C293.41,-136.33 300.12,-134.17 300.12,-131.25 300.12,-129.56 297.88,-128.13 293.9,-126.95"/>
<polygon fill="brown" stroke="brown" points="294.57,-123.52 284.09,-125.07 293.25,-130.39 294.57,-123.52"/>
<text xml:space="preserve" text-anchor="middle" x="321.5" y="-126.58" font-family="Times,serif" font-size="14.00" fill="brown">chunk</text>
</g>
<!-- 4 -->
<g id="node5" class="node">
<title>4</title>
<polygon fill="none" stroke="navy" points="947,-60 679,-60 679,-24 947,-24 947,-60"/>
<text xml:space="preserve" text-anchor="middle" x="813" y="-37.33" font-family="Times,serif" font-size="14.00">[4] WriteDone .server &#45;&gt; { .client }</text>
</g>
<!-- 3&#45;&gt;4 -->
<g id="edge12" class="edge">
<title>3&#45;&gt;4</title>
<path fill="none" stroke="brown" d="M282.61,-113.12C393.96,-98.4 554.31,-77.2 669.51,-61.97"/>
<polygon fill="brown" stroke="brown" points="669.91,-65.45 679.36,-60.67 668.99,-58.51 669.91,-65.45"/>
<text xml:space="preserve" text-anchor="middle" x="559.36" y="-81.95" font-family="Times,serif" font-size="14.00" fill="brown">done</text>
</g>
<!-- 4&#45;&gt;0 -->
<g id="edge13" class="edge">
<title>4&#45;&gt;0</title>
<path fill="none" stroke="navy" d="M947.47,-46.93C1121.83,-53.44 1407.6,-69.47 1440,-105.25 1463.05,-130.7 1461.76,-155.95 1440,-182.5 1419.32,-207.73 1349.57,-222.61 1282.42,-231.27"/>
<polygon fill="navy" stroke="navy" points="1282.23,-227.76 1272.74,-232.47 1283.1,-234.71 1282.23,-227.76"/>
<text xml:space="preserve" text-anchor="middle" x="1477.81" y="-126.58" font-family="Times,serif" font-size="14.00" fill="navy">result</text>
</g>
<!-- 5&#45;&gt;0 -->
<g id="edge14" class="edge">
<title>5&#45;&gt;0</title>
<path fill="none" stroke="teal" d="M1087.25,-149.5C1096.62,-160.67 1108.44,-175.82 1117,-190.5 1121.43,-198.1 1125.45,-206.76 1128.81,-214.82"/>
<polygon fill="teal" stroke="teal" points="1125.45,-215.85 1132.39,-223.86 1131.96,-213.28 1125.45,-215.85"/>
<text xml:space="preserve" text-anchor="middle" x="1146.47" y="-194.45" font-family="Times,serif" font-size="14.00" fill="teal">result</text>
</g>
<!-- 6&#45;&gt;0 -->
<g id="edge15" class="edge">
<title>6&#45;&gt;0</title>
<path fill="none" stroke="cyan" d="M1309.67,-149.47C1298.5,-166.65 1279.15,-192.61 1256,-207.75 1248.09,-212.92 1239.39,-217.35 1230.42,-221.14"/>
<polygon fill="cyan" stroke="cyan" points="1229.23,-217.85 1221.19,-224.76 1231.78,-224.37 1229.23,-217.85"/>
<text xml:space="preserve" text-anchor="middle" x="1292.54" y="-194.45" font-family="Times,serif" font-size="14.00" fill="cyan">resp</text>
</g>
<!-- 7&#45;&gt;0 -->
<g id="edge16" class="edge">
<title>7&#45;&gt;0</title>
<path fill="none" stroke="magenta" d="M1632.13,-149.55C1618.67,-167.59 1594.93,-194.99 1567,-207.75 1517.77,-230.24 1386.68,-238.48 1282.44,-241.4"/>
<polygon fill="magenta" stroke="magenta" points="1282.57,-237.89 1272.67,-241.66 1282.76,-244.89 1282.57,-237.89"/>
<text xml:space="preserve" text-anchor="middle" x="1612.75" y="-194.45" font-family="Times,serif" font-size="14.00" fill="magenta">result</text>
</g>
</g>
</svg>
