<?xml version="1.0" encoding="UTF-8" standalone="no"?>
<!DOCTYPE svg PUBLIC "-//W3C//DTD SVG 1.1//EN"
 "http://www.w3.org/Graphics/SVG/1.1/DTD/svg11.dtd">
<!-- Generated by graphviz version 14.1.5 (0)
 -->
<!-- Title: fsm_state_graph Pages: 1 -->
<svg width="372pt" height="255pt"
 viewBox="0.00 0.00 372.00 255.00" xmlns="http://www.w3.org/2000/svg" xmlns:xlink="http://www.w3.org/1999/xlink">
<g id="graph0" class="graph" transform="scale(1 1) rotate(0) translate(4 251)">
<title>fsm_state_graph</title>
<polygon fill="white" stroke="none" points="-4,4 -4,-251 368,-251 368,4 -4,4"/>
<g id="clust1" class="cluster">
<title>cluster_transitions</title>
<polygon fill="none" stroke="black" points="8,-8 8,-239 356,-239 356,-8 8,-8"/>
<text xml:space="preserve" text-anchor="middle" x="182" y="-221.7" font-family="Times,serif" font-size="14.00">State Transitions</text>
</g>
<g id="clust2" class="cluster">
<title>cluster_fsm_0</title>
<polygon fill="none" stroke="black" points="16,-16 16,-205.75 232,-205.75 232,-16 16,-16"/>
<text xml:space="preserve" text-anchor="middle" x="124" y="-188.45" font-family="Times,serif" font-size="14.00">pingpong: { .alice, .bob }</text>
</g>
<g id="clust3" class="cluster">
<title>cluster_fsm_1</title>
<polygon fill="none" stroke="black" points="240,-16 240,-93.25 348,-93.25 348,-16 240,-16"/>
<text xml:space="preserve" text-anchor="middle" x="294" y="-75.95" font-family="Times,serif" font-size="14.00">polyrole_exit</text>
</g>
<!-- 0 -->
<g id="node1" class="node">
<title>0</title>
<polygon fill="none" stroke="red" points="223.75,-172.5 26.25,-172.5 26.25,-136.5 223.75,-136.5 223.75,-172.5"/>
<text xml:space="preserve" text-anchor="middle" x="125" y="-149.82" font-family="Times,serif" font-size="14.00">[0] Ping .alice &#45;&gt; { .bob }</text>
</g>
<!-- 1 -->
<g id="node2" class="node">
<title>1</title>
<polygon fill="none" stroke="green" points="224.25,-60 23.75,-60 23.75,-24 224.25,-24 224.25,-60"/>
<text xml:space="preserve" text-anchor="middle" x="124" y="-37.33" font-family="Times,serif" font-size="14.00">[1] Pong .bob &#45;&gt; { .alice }</text>
</g>
<!-- 0&#45;&gt;1 -->
<g id="edge1" class="edge">
<title>0&#45;&gt;1</title>
<path fill="none" stroke="red" d="M107.6,-136C103.49,-130.79 99.67,-124.78 97.5,-118.5 91.95,-102.44 97.75,-84.49 105.32,-70.13"/>
<polygon fill="red" stroke="red" points="108.23,-72.08 110.25,-61.68 102.19,-68.56 108.23,-72.08"/>
<text xml:space="preserve" text-anchor="middle" x="113.25" y="-105.2" font-family="Times,serif" font-size="14.00" fill="red">ping</text>
</g>
<!-- 2 -->
<g id="node3" class="node">
<title>2</title>
<polygon fill="none" stroke="blue" points="317.62,-60 248.38,-60 248.38,-24 317.62,-24 317.62,-60"/>
<text xml:space="preserve" text-anchor="middle" x="283" y="-37.33" font-family="Times,serif" font-size="14.00">[2] Exit</text>
</g>
<!-- 0&#45;&gt;2 -->
<g id="edge2" class="edge">
<title>0&#45;&gt;2</title>
<path fill="none" stroke="red" d="M164.11,-136.12C186.26,-125.36 213.88,-110.35 236,-93.25 245.26,-86.09 254.31,-77.05 261.97,-68.62"/>
<polygon fill="red" stroke="red" points="264.43,-71.13 268.38,-61.3 259.16,-66.51 264.43,-71.13"/>
<text xml:space="preserve" text-anchor="middle" x="240.71" y="-105.2" font-family="Times,serif" font-size="14.00" fill="red">next</text>
</g>
<!-- 1&#45;&gt;0 -->
<g id="edge3" class="edge">
<title>1&#45;&gt;0</title>
<path fill="none" stroke="green" d="M126.37,-60.39C128.16,-75.69 130.14,-98.57 129,-118.5 128.88,-120.56 128.73,-122.69 128.54,-124.83"/>
<polygon fill="green" stroke="green" points="125.08,-124.28 127.54,-134.58 132.05,-124.99 125.08,-124.28"/>
<text xml:space="preserve" text-anchor="middle" x="143.96" y="-105.2" font-family="Times,serif" font-size="14.00" fill="green">cast</text>
</g>
</g>
</svg>
